<?xml version="1.0" encoding="utf-8"?>
<!-- Generator: Adobe Illustrator 27.5.0, SVG Export Plug-In . SVG Version: 6.00 Build 0)  -->
<svg version="1.1" id="Laag_1" xmlns="http://www.w3.org/2000/svg" xmlns:xlink="http://www.w3.org/1999/xlink" x="0px" y="0px"
	 viewBox="0 0 32 32" style="enable-background:new 0 0 32 32;" xml:space="preserve">
<style type="text/css">
	.st0{fill:#FFFFFF;}
	.st1{fill:#020203;}
</style>
<path class="st0" d="M27,32H5c-2.8,0-5-2.2-5-5V5c0-2.8,2.2-5,5-5h22c2.8,0,5,2.2,5,5v22C32,29.8,29.8,32,27,32z"/>
<path class="st1" d="M23,8c0.2-0.2,0.2-0.6,0-0.8l-1.1-1.1C18.5,2.8,13,2.9,9.6,6.3s-3.3,8.9,0.2,12.3l0.9,0.9
	c0.2,0.2,0.6,0.2,0.8,0l0.8-0.8c0.2-0.2,0.2-0.6,0-0.8L11.4,17c-2.6-2.5-2.7-6.5-0.2-9.1s6.5-2.7,9.1-0.2l-2,2
	c-1.6-1.3-3.9-1-5.1,0.5c-1.2,1.4-1.1,3.5,0.2,4.8l3.6,3.6c0.5,0.5,0.5,1.4,0,2c-0.5,0.5-1.4,0.5-2,0l0,0l-0.9-0.9
	c-0.2-0.2-0.6-0.2-0.8,0L9,24.1c-0.2,0.2-0.2,0.6,0,0.8l1.1,1.1c3.5,3.3,9,3.2,12.3-0.2c3.3-3.4,3.2-8.9-0.2-12.2l-0.9-0.9
	c-0.2-0.2-0.6-0.2-0.8,0l-0.8,0.8c-0.2,0.2-0.2,0.6,0,0.8l0.9,0.9c2.6,2.5,2.6,6.6,0.1,9.1c-2.5,2.5-6.5,2.6-9.1,0.2l2-2
	c1.5,1.3,3.8,1.1,5.1-0.5c1.2-1.4,1.1-3.5-0.2-4.9L15,13.4c-0.6-0.5-0.6-1.4-0.1-2s1.4-0.6,2-0.1c0,0,0.1,0.1,0.1,0.1l0.9,0.9
	c0.2,0.2,0.6,0.2,0.8,0L23,8z"/>
</svg>
