<?xml version="1.0" encoding="utf-8"?>
<!-- Generator: Adobe Illustrator 27.5.0, SVG Export Plug-In . SVG Version: 6.00 Build 0)  -->
<svg version="1.1" id="Laag_1" xmlns="http://www.w3.org/2000/svg" xmlns:xlink="http://www.w3.org/1999/xlink" x="0px" y="0px"
	 viewBox="0 0 100 100" style="enable-background:new 0 0 100 100;" xml:space="preserve">
<style type="text/css">
	.st0{fill:#252628;}
	.st1{fill:none;stroke:#252628;stroke-linecap:round;stroke-linejoin:round;}
</style>
<path class="st0" d="M89.4,10.6c-0.8-0.8-2-0.8-2.8,0L50,47.2L13.4,10.6c-0.8-0.8-2-0.8-2.8,0c-0.8,0.8-0.8,2,0,2.8L47.2,50
	L10.6,86.6c-0.8,0.8-0.8,2,0,2.8C11,89.8,11.5,90,12,90c0.5,0,1-0.2,1.4-0.6L50,52.8l36.6,36.6C87,89.8,87.5,90,88,90
	c0.5,0,1-0.2,1.4-0.6c0.8-0.8,0.8-2,0-2.8L52.8,50l36.6-36.6C90.2,12.6,90.2,11.4,89.4,10.6z"/>
</svg>
