<?xml version="1.0" encoding="utf-8"?>
<!-- Generator: Adobe Illustrator 27.5.0, SVG Export Plug-In . SVG Version: 6.00 Build 0)  -->
<svg version="1.1" id="Laag_1" xmlns="http://www.w3.org/2000/svg" xmlns:xlink="http://www.w3.org/1999/xlink" x="0px" y="0px"
	 viewBox="0 0 100 100" style="enable-background:new 0 0 100 100;" xml:space="preserve">
<style type="text/css">
	.st0{fill:#252628;}
	.st1{fill:none;stroke:#252628;stroke-linecap:round;stroke-linejoin:round;}
</style>
<path class="st0" d="M39.2,7.8c0.3-0.4,0.6-0.7,0.9-1.1c1.7-2.1,2.6-3.8,4.1-6.4L44,0c-2.1-0.1-4.1,0.9-5.5,2.3
	c-1.5,1.3-2,3.2-2.7,4.9c-0.4,0-0.8-0.1-1.2-0.1c-8.1,0-14.7,6.5-14.9,14.6L0.8,22.9v55.4l0.2,0.4C1.5,79.6,12,100,41.6,100h0.6
	l57-35.6V16.1l-49.9,3.5C48.3,14.1,44.4,9.6,39.2,7.8z M34.5,11.1C34.5,11.1,34.5,11.1,34.5,11.1c-0.3,1.5-0.6,3-0.7,4.5
	c-4.3-0.1-8.4,4.6-6.5,8.6c1.9-4.1,6.4-5.9,10.2-3.6c1.1,0.7,2.2,1.8,3,3.6c1.7-3.7-1.6-7.9-5.4-8.5c0.6-1.4,1.2-2.9,1.9-4.2
	c4.1,1,7.3,4.3,8.2,8.5c0.1,0.7,0.2,1.4,0.2,2.1c0,0.6-0.1,1.3-0.2,1.9c-0.9,5.1-5.4,9-10.7,9c-4.9,0-9-3.2-10.4-7.6
	c-0.3-1.1-0.5-2.2-0.5-3.3c0-0.2,0-0.4,0-0.6C23.9,15.6,28.7,11.1,34.5,11.1z M95.2,47.6L43.5,80.5V69.3l51.6-32.2V47.6z M95.2,32.4
	L43.5,64.6V44.8l51.6-23.5V32.4z M40.4,41.8C21.3,41.5,10.7,31.5,6.6,26.5l13.5-0.9c1.6,6.5,7.5,11.3,14.4,11.3
	c7.7,0,14-5.8,14.8-13.3l37-2.6L40.4,41.8z M4.8,77.3V30.6c5.3,5.7,16.3,14.6,34.7,15.2V96C15.9,95.2,6.3,80,4.8,77.3z M43.5,94.4
	v-9.2l51.6-32.9v9.8L43.5,94.4z"/>
</svg>
