<?xml version="1.0" encoding="utf-8"?>
<!-- Generator: Adobe Illustrator 27.5.0, SVG Export Plug-In . SVG Version: 6.00 Build 0)  -->
<svg version="1.1" id="Laag_1" xmlns="http://www.w3.org/2000/svg" xmlns:xlink="http://www.w3.org/1999/xlink" x="0px" y="0px"
	 viewBox="0 0 100 100" style="enable-background:new 0 0 100 100;" xml:space="preserve">
<path d="M47.8,0c2.2,1.1,6.7,8.4,6.7,13.3s-3,6.7-6.7,6.7s-6.7-0.7-6.7-5.6S45.6,6.7,47.8,0z M78.3,38.3c10.9,0,19.6,8.7,19.6,19.6
	c0,6.8-3.4,12.8-8.7,16.3v25.1H10.8V74.2c-5.3-3.5-8.7-9.5-8.7-16.3c0-10.9,8.7-19.6,19.6-19.6h19.6V25.2h13.1v13.1H78.3z M50,68.8
	c2.9,0,5.7-1.1,7.7-3.2c2-2,3.2-4.8,3.2-7.7h6.5c0,2.9,1.1,5.7,3.2,7.7c2,2,4.8,3.2,7.7,3.2s5.7-1.1,7.7-3.2c2-2,3.2-4.8,3.2-7.7
	c0-2.9-1.1-5.7-3.2-7.7c-2-2-4.8-3.2-7.7-3.2H21.7c-2.9,0-5.7,1.1-7.7,3.2c-2,2-3.2,4.8-3.2,7.7c0,2.9,1.1,5.7,3.2,7.7
	c2,2,4.8,3.2,7.7,3.2s5.7-1.1,7.7-3.2c2-2,3.2-4.8,3.2-7.7h6.5c0,2.9,1.1,5.7,3.2,7.7C44.3,67.6,47.1,68.8,50,68.8z"/>
</svg>
