<?xml version="1.0" encoding="utf-8"?>
<!-- Generator: Adobe Illustrator 27.5.0, SVG Export Plug-In . SVG Version: 6.00 Build 0)  -->
<svg version="1.1" id="Laag_1" xmlns="http://www.w3.org/2000/svg" xmlns:xlink="http://www.w3.org/1999/xlink" x="0px" y="0px"
	 viewBox="0 0 100 100" style="enable-background:new 0 0 100 100;" xml:space="preserve">
<style type="text/css">
	.st0{fill:#252628;}
	.st1{fill:none;stroke:#252628;stroke-linecap:round;stroke-linejoin:round;}
</style>
	<path class="st0" d="M98.3,78l-9.9-9.9L74.2,53.8L70.3,50l28-28c0.5-0.5,0.9-1.1,1.2-1.8c0.3-0.7,0.4-1.4,0.4-2.1
		c0-0.7-0.2-1.4-0.4-2.1c-0.3-0.7-0.7-1.3-1.2-1.8L86.1,1.9c-2-2.1-5.7-2.1-7.8,0l-28,28l-3.9-3.8L32.2,11.8l-9.9-9.9
		c-0.5-0.5-1.1-0.9-1.8-1.2c-1.4-0.6-3-0.6-4.3,0c-0.7,0.3-1.3,0.7-1.8,1.2L2.2,14.1c-0.5,0.6-1,1.2-1.2,1.8
		c-0.3,0.7-0.4,1.4-0.4,2.2c0,0.7,0.1,1.4,0.4,2.1s0.7,1.3,1.2,1.8l28,28l-27,27c-0.3,0.3-0.5,0.7-0.6,1.2L0,95
		c-0.1,0.6,0,1.3,0.2,1.8c0.2,0.6,0.5,1.1,0.9,1.6c0.4,0.4,1,0.8,1.6,1c0.4,0.2,0.9,0.2,1.4,0.2c0.2,0,0.3,0,0.5,0l17.2-1.9l0.3,0
		c0.4,0,0.9-0.2,1.2-0.6l0.4-0.4l26.7-26.7l28,28c0.5,0.5,1.1,0.9,1.8,1.2c0.7,0.3,1.4,0.4,2.2,0.4c0.7,0,1.4-0.2,2.1-0.4
		c0.7-0.3,1.3-0.7,1.8-1.2l12.2-12.2c0.5-0.5,0.9-1.1,1.2-1.8c0.3-0.7,0.4-1.4,0.4-2.2c0-0.7-0.2-1.4-0.4-2.1
		C99.2,79.1,98.8,78.5,98.3,78z M5,19.2c-0.1-0.2-0.2-0.3-0.3-0.5c-0.1-0.2-0.1-0.4-0.1-0.6c0-0.2,0-0.4,0.1-0.6
		c0.1-0.2,0.2-0.4,0.3-0.5L17.2,4.7c0.1-0.2,0.3-0.3,0.5-0.4c0.2-0.1,0.4-0.1,0.6-0.1s0.4,0,0.6,0.1c0.2,0.1,0.4,0.2,0.5,0.4
		l1.4,1.4L19.9,7c-0.8,0.8-0.8,2,0,2.8c0.4,0.4,0.9,0.6,1.4,0.6c0.5,0,1-0.2,1.4-0.6l0.9-0.9l4.3,4.3L24.2,17c-0.8,0.8-0.8,2,0,2.8
		c0.4,0.4,0.9,0.6,1.4,0.6s1-0.2,1.4-0.6l3.8-3.8l4.3,4.3l-0.9,0.9c-0.8,0.8-0.8,2,0,2.8c0.4,0.4,0.9,0.6,1.4,0.6
		c0.5,0,1-0.2,1.4-0.6l0.9-0.9l4.3,4.3l-3.8,3.8c-0.8,0.8-0.8,2,0,2.8c0.4,0.4,0.9,0.6,1.4,0.6s1-0.2,1.4-0.6l3.8-3.8l2.4,2.4
		L33,47.1L5,19.2z M9,95.1l-4.2-4.2l1.2-8.2l11.5,11.5L9,95.1z M48.6,66.1L21.8,92.9L7.4,78.5l44.3-44.3L81.1,4.7
		c0.6-0.6,1.6-0.6,2.2,0L95.6,17c0.1,0.1,0.2,0.3,0.3,0.5c0.1,0.2,0.1,0.4,0.1,0.6c0,0.2,0,0.4-0.1,0.6c-0.1,0.2-0.2,0.4-0.3,0.5
		L66.1,48.6L48.6,66.1z M95.8,82.6c-0.1,0.2-0.2,0.4-0.4,0.5L83.3,95.2c-0.2,0.2-0.3,0.3-0.5,0.4c-0.4,0.2-0.8,0.2-1.2,0
		c-0.2-0.1-0.4-0.2-0.5-0.4l-28-28l14.4-14.4l2.4,2.4L66.2,59c-0.8,0.8-0.8,2,0,2.8c0.4,0.4,0.9,0.6,1.4,0.6s1-0.2,1.4-0.6l3.8-3.7
		l4.3,4.3l-0.9,0.9c-0.8,0.8-0.8,2,0,2.8c0.4,0.4,0.9,0.6,1.4,0.6s1-0.2,1.4-0.6l0.9-0.9l4.3,4.3l-3.7,3.8c-0.8,0.8-0.8,2,0,2.8
		c0.4,0.4,0.9,0.6,1.4,0.6c0.5,0,1-0.2,1.4-0.6l3.8-3.7l4.3,4.3l-0.9,0.9c-0.8,0.8-0.8,2.1,0,2.8c0.4,0.4,0.9,0.6,1.4,0.6
		s1-0.2,1.4-0.6l0.9-0.9l1.4,1.4c0.2,0.2,0.3,0.3,0.4,0.5c0.1,0.2,0.1,0.4,0.1,0.6C96,82.2,95.9,82.4,95.8,82.6z"/>
</svg>
