<?xml version="1.0" encoding="utf-8"?>
<!-- Generator: Adobe Illustrator 27.5.0, SVG Export Plug-In . SVG Version: 6.00 Build 0)  -->
<svg version="1.1" id="Laag_1" xmlns="http://www.w3.org/2000/svg" xmlns:xlink="http://www.w3.org/1999/xlink" x="0px" y="0px"
	 viewBox="0 0 100 100" style="enable-background:new 0 0 100 100;" xml:space="preserve">
<style type="text/css">
	.st0{fill:#252628;}
	.st1{fill:none;stroke:#252628;stroke-linecap:round;stroke-linejoin:round;}
</style>

		<path class="st0" d="M49.4,77.5c-14.8,0-26.9-12.1-26.9-26.9c0-14.8,12.1-26.9,26.9-26.9c14.8,0,26.9,12.1,26.9,26.9
			C76.4,65.4,64.3,77.5,49.4,77.5z M49.4,27.6c-12.6,0-22.9,10.3-22.9,22.9c0,12.6,10.3,22.9,22.9,22.9s22.9-10.3,22.9-22.9
			C72.4,37.9,62.1,27.6,49.4,27.6z"/>

		<path class="st0" d="M49.4,50c0.1,0,0.2,0,0.3,0.1c0.1,0,0.2,0.1,0.2,0.2c0.1,0.1,0.1,0.2,0.1,0.3c0,0.1,0,0.2,0,0.3
			c0,0.1-0.1,0.2-0.2,0.2c-0.1,0.1-0.2,0.1-0.2,0.1c-0.1,0-0.2,0-0.3,0c-0.1,0-0.2-0.1-0.2-0.1c-0.1-0.1-0.2-0.2-0.2-0.4
			c0-0.1,0.1-0.3,0.2-0.4c0.1-0.1,0.1-0.1,0.2-0.1C49.3,50,49.4,50,49.4,50z M49.4,46.2c-1,0-2,0.4-2.7,1c-0.8,0.6-1.3,1.5-1.5,2.5
			c-0.2,1,0,2,0.4,2.9c0.5,0.9,1.2,1.6,2.2,2c0.9,0.4,2,0.4,2.9,0.1c1-0.3,1.8-0.9,2.3-1.7c0.6-0.8,0.8-1.8,0.7-2.8
			c-0.1-1-0.5-1.9-1.3-2.6C51.7,46.7,50.6,46.2,49.4,46.2L49.4,46.2z"/>

		<path class="st0" d="M49.1,52.9c-0.5,0-1-0.2-1.4-0.6c-0.8-0.8-0.8-2,0-2.8L87.9,9.3c0.8-0.8,2-0.8,2.8,0s0.8,2,0,2.8L50.5,52.3
			C50.2,52.7,49.6,52.9,49.1,52.9z"/>

		<path class="st0" d="M49.4,100c-12.7,0-25.3-4.8-35-14.5C5.1,76.2,0,63.8,0,50.6c0-13.2,5.1-25.6,14.5-35
			C31.9-1.8,59.7-3.7,79.3,11.1c0.9,0.7,1.1,1.9,0.4,2.8c-0.7,0.9-1.9,1.1-2.8,0.4c-18-13.6-43.6-11.9-59.6,4.1
			C8.7,27,4,38.4,4,50.6c0,12.1,4.7,23.6,13.3,32.1c17.7,17.7,46.6,17.7,64.3,0c16-16,17.7-41.6,4.1-59.6c-0.7-0.9-0.5-2.1,0.4-2.8
			c0.9-0.7,2.1-0.5,2.8,0.4c14.9,19.6,12.9,47.4-4.5,64.8C74.8,95.2,62.1,100,49.4,100z"/>

		<path class="st0" d="M77.3,32.8C77.3,32.8,77.3,32.8,77.3,32.8h-8.1c-1.1,0-2-0.9-2-2v-8.1c0-0.6,0.1-1.2,0.3-1.8
			c0.2-0.6,0.6-1.1,1-1.5L87.4,0.6C88,0,88.8-0.1,89.5,0.1c0.7,0.3,1.2,1,1.3,1.8l0.4,6.9l6.9,0.4c0.8,0,1.5,0.5,1.8,1.3
			c0.3,0.7,0.1,1.6-0.5,2.1L80.6,31.4C79.7,32.3,78.5,32.8,77.3,32.8z M71.2,28.8h6.1h0c0.2,0,0.3-0.1,0.4-0.2L93.4,13l-4.2-0.2
			c-1-0.1-1.8-0.9-1.9-1.9L87,6.6L71.4,22.2c0,0-0.2,0.4-0.2,0.4V28.8z"/>

</svg>
