<?xml version="1.0" encoding="utf-8"?>
<!-- Generator: Adobe Illustrator 27.5.0, SVG Export Plug-In . SVG Version: 6.00 Build 0)  -->
<svg version="1.1" id="Laag_1" xmlns="http://www.w3.org/2000/svg" xmlns:xlink="http://www.w3.org/1999/xlink" x="0px" y="0px"
	 viewBox="0 0 100 100" style="enable-background:new 0 0 100 100;" xml:space="preserve">
<style type="text/css">
	.st0{fill:#252628;}
	.st1{fill:none;stroke:#252628;stroke-linecap:round;stroke-linejoin:round;}
</style>

		<path class="st0" d="M49.6,100C23.9,100,3,79.1,3,53.5C3,27.9,23.9,7,49.6,7s46.6,20.9,46.6,46.5C96.1,79.1,75.2,100,49.6,100z
			 M49.6,11C26.1,11,7,30.1,7,53.5S26.1,96,49.6,96C73,96,92.1,76.9,92.1,53.5S73,11,49.6,11z"/>

		<path class="st0" d="M55.6,4H43.5c-1.1,0-2-0.9-2-2s0.9-2,2-2h12.2c1.1,0,2,0.9,2,2S56.8,4,55.6,4z"/>

		<path class="st0" d="M49.6,52.6c0.1,0,0.3,0,0.4,0.1c0.1,0,0.2,0.1,0.3,0.2c0.1,0.1,0.2,0.2,0.2,0.3c0,0.1,0.1,0.2,0.1,0.4
			c0,0.1,0,0.3-0.1,0.4c0,0.1-0.1,0.2-0.2,0.3c-0.2,0.2-0.4,0.3-0.7,0.3c-0.3,0-0.5-0.1-0.7-0.3c-0.1-0.1-0.2-0.2-0.2-0.3
			c0-0.1-0.1-0.2-0.1-0.4c0-0.1,0-0.3,0.1-0.4c0-0.1,0.1-0.2,0.2-0.3c0.1-0.1,0.2-0.2,0.3-0.2C49.3,52.6,49.4,52.6,49.6,52.6
			 M49.6,48.6c-1.2,0-2.3,0.4-3.2,1.1c-0.9,0.7-1.5,1.8-1.7,2.9c-0.2,1.1,0,2.3,0.5,3.3c0.5,1,1.4,1.8,2.5,2.3
			c1.1,0.4,2.3,0.5,3.4,0.2c1.1-0.3,2.1-1.1,2.7-2c0.6-1,0.9-2.1,0.8-3.3c-0.1-1.2-0.6-2.2-1.4-3.1c-0.5-0.5-1-0.8-1.6-1.1
			C50.9,48.7,50.2,48.6,49.6,48.6L49.6,48.6z"/>

		<path class="st0" d="M88.5,21.5c-0.5,0-1-0.2-1.4-0.6l-4.8-4.8c-0.8-0.8-0.8-2,0-2.8c0.8-0.8,2-0.8,2.8,0l4.8,4.8
			c0.8,0.8,0.8,2,0,2.8C89.5,21.3,89,21.5,88.5,21.5z"/>

		<path class="st0" d="M95,18.3c-0.5,0-1-0.2-1.4-0.6L85,9.1c-0.8-0.8-0.8-2,0-2.8c0.8-0.8,2-0.8,2.8,0l8.6,8.6c0.8,0.8,0.8,2,0,2.8
			C96,18.1,95.5,18.3,95,18.3z"/>

		<path class="st0" d="M49.6,64.1c-1.1,0-2-0.9-2-2v-45c0-1.1,0.9-2,2-2c1.1,0,2,0.9,2,2v45C51.6,63.2,50.7,64.1,49.6,64.1z"/>

</svg>
