<?xml version="1.0" encoding="utf-8"?>
<!-- Generator: Adobe Illustrator 27.5.0, SVG Export Plug-In . SVG Version: 6.00 Build 0)  -->
<svg version="1.1" id="Laag_1" xmlns="http://www.w3.org/2000/svg" xmlns:xlink="http://www.w3.org/1999/xlink" x="0px" y="0px"
	 viewBox="0 0 100 100" style="enable-background:new 0 0 100 100;" xml:space="preserve">
<style type="text/css">
	.st0{fill:#252628;}
</style>
<g>
	<g>
		<path class="st0" d="M70.2,39c0,11.2-9.1,20.4-20.4,20.4S29.5,50.2,29.5,39c0-11.2,9.1-20.4,20.4-20.4S70.2,27.8,70.2,39z"/>
	</g>
	<g>
		<path class="st0" d="M50,0C22.4,0,0,22.4,0,50c0,12.6,4.7,24.7,13.3,33.9c0,0,0.1,0.1,0.1,0.2l0,0c4.7,5,10.2,9,16.5,11.7
			c6.3,2.8,13.1,4.2,20,4.2h0.1c6.9,0,13.5-1.4,19.8-4.1c6.3-2.7,11.9-6.7,16.6-11.7c0,0,0.1-0.1,0.1-0.1c8.7-9.3,13.4-21.4,13.4-34
			C100,22.4,77.6,0,50,0z M50,4c25.4,0,46,20.6,46,46c0,10.5-3.5,20.6-10.1,28.7c-2.5-6.9-8.5-14.4-22.1-17.4
			c-1.2-0.2-2.3-0.1-3.3,0.5c-3.2,1.7-6.8,2.6-10.5,2.6c-5.4,0-9.4-1.8-10.8-2.6c-1-0.6-2.2-0.8-3.4-0.5
			c-13.5,2.9-19.4,10.4-22,17.2c0,0,0,0,0,0C7.5,70.4,4,60.4,4,50C4,24.6,24.6,4,50,4z"/>
	</g>
</g>
</svg>
